<svg width="166" height="33" viewBox="0 0 166 33" fill="none" xmlns="http://www.w3.org/2000/svg"><script xmlns=""/>
<g clip-path="url(#clip0_458_3322)">
<path d="M11.7997 9.78047C11.7997 12.0477 10.0386 13.3611 6.65409 13.3611H0V0.226807H6.28655C9.50256 0.226807 11.1565 1.59497 11.1565 3.6433C11.1565 4.95673 10.498 5.97308 9.44896 6.53597C10.8809 7.00506 11.7997 8.13086 11.7997 9.78047ZM2.95567 2.5175V5.61344H5.91134C7.36621 5.61344 8.1549 5.08964 8.1549 4.05765C8.1549 3.02567 7.36621 2.5175 5.91134 2.5175H2.95567ZM8.80576 9.45993C8.80576 8.34976 7.97878 7.82595 6.43203 7.82595H2.95567V11.0704H6.43203C7.97878 11.0704 8.80576 10.5857 8.80576 9.45993Z" fill="#00843D"/>
<path d="M13.0633 6.79389C13.0633 2.83795 16.042 0 20.0467 0C22.2673 0 24.1279 0.828714 25.3378 2.32978L23.4235 4.12793C22.5582 3.11158 21.4786 2.58778 20.1922 2.58778C17.7878 2.58778 16.0726 4.31556 16.0726 6.79389C16.0726 9.27221 17.7801 11 20.1922 11C21.4786 11 22.5659 10.4762 23.4235 9.44421L25.3378 11.2424C24.1279 12.7591 22.2673 13.5878 20.0237 13.5878C16.0343 13.5878 13.0557 10.7576 13.0557 6.79389H13.0633Z" fill="#00843D"/>
<path d="M26.0799 6.79389C26.0799 2.83795 29.0586 0 33.0633 0C35.2839 0 37.1445 0.828714 38.3544 2.32978L36.4401 4.12793C35.5748 3.11158 34.4952 2.58778 33.2088 2.58778C30.8044 2.58778 29.0892 4.31556 29.0892 6.79389C29.0892 9.27221 30.7967 11 33.2088 11C34.4952 11 35.5825 10.4762 36.4401 9.44421L38.3544 11.2424C37.1445 12.7591 35.2839 13.5878 33.0403 13.5878C29.0509 13.5878 26.0723 10.7576 26.0723 6.79389H26.0799Z" fill="#00843D"/>
<path d="M0.566406 19.772H1.92938V32.9063H0.566406V19.772Z" fill="#003594"/>
<path d="M14.556 27.1834V32.9062H13.2543V27.3163C13.2543 25.2367 12.1899 24.1656 10.3522 24.1656C8.27711 24.1656 6.96774 25.4791 6.96774 27.7307V32.9062H5.66602V23.0398H6.91414V24.8615C7.61094 23.6575 8.92032 22.9695 10.5896 22.9695C12.9403 22.9695 14.556 24.3611 14.556 27.1912V27.1834Z" fill="#003594"/>
<path d="M26.8158 27.1834V32.9062H25.514V27.3163C25.514 25.2367 24.4497 24.1656 22.612 24.1656C20.5369 24.1656 19.2275 25.4791 19.2275 27.7307V32.9062H17.9258V23.0398H19.1739V24.8615C19.8707 23.6575 21.1801 22.9695 22.8493 22.9695C25.2001 22.9695 26.8158 24.3611 26.8158 27.1912V27.1834Z" fill="#003594"/>
<path d="M29.2354 27.973C29.2354 25.0491 31.3334 22.9617 34.1589 22.9617C36.9844 22.9617 39.0672 25.0413 39.0672 27.973C39.0672 30.9048 36.9921 33 34.1589 33C31.3258 33 29.2354 30.897 29.2354 27.973ZM37.7501 27.973C37.7501 25.6667 36.2264 24.1266 34.1666 24.1266C32.1068 24.1266 30.56 25.6667 30.56 27.973C30.56 30.2794 32.1068 31.8195 34.1666 31.8195C36.2264 31.8195 37.7501 30.2794 37.7501 27.973Z" fill="#003594"/>
<path d="M49.3964 23.032L45.093 32.8984H43.753L39.4727 23.032H40.8356L44.4575 31.4364L48.1176 23.032H49.404H49.3964Z" fill="#003594"/>
<path d="M58.0564 26.7925V32.9062H56.8083V31.3661C56.2187 32.3824 55.0777 33 53.485 33C51.2951 33 49.9551 31.8352 49.9551 30.1308C49.9551 28.6141 50.9122 27.332 53.6841 27.332H56.7547V26.73C56.7547 25.0413 55.8205 24.1187 54.0134 24.1187C52.7653 24.1187 51.5861 24.5722 50.7974 25.2836L50.2078 24.2907C51.1802 23.4464 52.6121 22.9617 54.1436 22.9617C56.6398 22.9617 58.0564 24.236 58.0564 26.7925ZM56.747 29.9432V28.3327H53.7148C51.8387 28.3327 51.2338 29.0832 51.2338 30.0996C51.2338 31.241 52.1374 31.9602 53.6765 31.9602C55.2156 31.9602 56.234 31.2488 56.747 29.951V29.9432Z" fill="#003594"/>
<path d="M66.5106 32.3043C65.9976 32.7733 65.2242 33.0001 64.4738 33.0001C62.6514 33.0001 61.6407 31.9524 61.6407 30.1308V24.1657H59.9102V23.0399H61.6407V20.8821H62.9424V23.0399H65.8828V24.1657H62.9424V30.0605C62.9424 31.2254 63.532 31.8586 64.6117 31.8586C65.1477 31.8586 65.676 31.6866 66.0436 31.3505L66.503 32.3043H66.5106Z" fill="#003594"/>
<path d="M68.4014 19.9203C68.4014 19.4122 68.8225 18.9822 69.3585 18.9822C69.8945 18.9822 70.3157 19.3965 70.3157 19.9047C70.3157 20.452 69.9098 20.882 69.3585 20.882C68.8072 20.882 68.4014 20.452 68.4014 19.9282V19.9203ZM68.6923 23.0319H69.9941V32.8983H68.6923V23.0319Z" fill="#003594"/>
<path d="M72.4824 27.973C72.4824 25.0491 74.5805 22.9617 77.406 22.9617C80.2315 22.9617 82.3142 25.0413 82.3142 27.973C82.3142 30.9048 80.2391 33 77.406 33C74.5728 33 72.4824 30.897 72.4824 27.973ZM80.9895 27.973C80.9895 25.6667 79.4658 24.1266 77.406 24.1266C75.3462 24.1266 73.7995 25.6667 73.7995 27.973C73.7995 30.2794 75.3462 31.8195 77.406 31.8195C79.4658 31.8195 80.9895 30.2794 80.9895 27.973Z" fill="#003594"/>
<path d="M93.6857 27.1834V32.9062H92.3763V27.3163C92.3763 25.2367 91.312 24.1656 89.4743 24.1656C87.3992 24.1656 86.0898 25.4791 86.0898 27.7307V32.9062H84.7881V23.0398H86.0362V24.8615C86.733 23.6575 88.0424 22.9695 89.7117 22.9695C92.0624 22.9695 93.6857 24.3611 93.6857 27.1912V27.1834Z" fill="#003594"/>
<path d="M103.318 20.9681V26.128H109.972V27.332H103.318V32.9063H101.955V19.772H110.776V20.976H103.318V20.9681Z" fill="#003594"/>
<path d="M121.213 28.3874H113.127C113.273 30.4514 114.819 31.8195 116.933 31.8195C118.112 31.8195 119.153 31.3895 119.896 30.5217L120.631 31.3817C119.766 32.4293 118.426 32.9922 116.902 32.9922C113.885 32.9922 111.833 30.8892 111.833 27.9652C111.833 25.0413 113.839 22.9539 116.557 22.9539C119.276 22.9539 121.244 25.0022 121.244 27.9652C121.244 28.0747 121.228 28.231 121.228 28.3796L121.213 28.3874ZM113.127 27.3867H119.98C119.819 25.4556 118.433 24.1031 116.542 24.1031C114.651 24.1031 113.288 25.4556 113.127 27.3867Z" fill="#003594"/>
<path d="M122.369 31.7804L122.959 30.7328C123.732 31.3504 125.034 31.843 126.397 31.843C128.235 31.843 128.985 31.2019 128.985 30.2325C128.985 27.6603 122.721 29.6852 122.721 25.784C122.721 24.1735 124.084 22.9695 126.542 22.9695C127.79 22.9695 129.153 23.3291 129.957 23.892L129.391 24.9631C128.541 24.3611 127.53 24.1187 126.542 24.1187C124.796 24.1187 124.023 24.8145 124.023 25.7527C124.023 28.4187 130.294 26.4094 130.294 30.2012C130.294 31.9055 128.824 33.0157 126.305 33.0157C124.705 33.0157 123.165 32.4919 122.369 31.7961V31.7804Z" fill="#003594"/>
<path d="M137.607 32.3043C137.094 32.7733 136.321 33.0001 135.571 33.0001C133.748 33.0001 132.737 31.9524 132.737 30.1308V24.1657H131.007V23.0399H132.737V20.8821H134.039V23.0399H136.979V24.1657H134.039V30.0605C134.039 31.2254 134.629 31.8586 135.716 31.8586C136.252 31.8586 136.78 31.6866 137.148 31.3505L137.607 32.3043Z" fill="#003594"/>
<path d="M139.498 19.9203C139.498 19.4122 139.919 18.9822 140.455 18.9822C140.991 18.9822 141.412 19.3965 141.412 19.9047C141.412 20.452 141.007 20.882 140.455 20.882C139.904 20.882 139.498 20.452 139.498 19.9282V19.9203ZM139.789 23.0319H141.098V32.8983H139.789V23.0319Z" fill="#003594"/>
<path d="M152.677 23.032L148.373 32.8984H147.033L142.753 23.032H144.116L147.738 31.4364L151.398 23.032H152.684H152.677Z" fill="#003594"/>
<path d="M161.329 26.7925V32.9062H160.081V31.3661C159.491 32.3824 158.35 33 156.757 33C154.568 33 153.228 31.8352 153.228 30.1308C153.228 28.6141 154.185 27.332 156.957 27.332H160.027V26.73C160.027 25.0413 159.093 24.1187 157.286 24.1187C156.038 24.1187 154.859 24.5722 154.07 25.2836L153.48 24.2907C154.453 23.4464 155.885 22.9617 157.416 22.9617C159.912 22.9617 161.329 24.236 161.329 26.7925ZM160.027 29.9432V28.3327H156.995C155.119 28.3327 154.514 29.0832 154.514 30.0996C154.514 31.241 155.417 31.9602 156.957 31.9602C158.496 31.9602 159.514 31.2488 160.027 29.951V29.9432Z" fill="#003594"/>
<path d="M164.69 18.9822H166V32.9061H164.69V18.9822Z" fill="#003594"/>
</g>
<defs>
<clipPath id="clip0_458_3322">
<rect width="166" height="33" fill="white"/>
</clipPath>
</defs>
</svg>